<?xml version="1.0" encoding="utf-8"?>
<?xml-stylesheet type="text/xsl" href="rss1.xsl"?>
<rss version="2.0" xmlns:atom="http://www.w3.org/2005/Atom" xmlns:content="http://purl.org/rss/1.0/modules/content/" xmlns:dc="http://purl.org/dc/elements/1.1/" xmlns:media="http://search.yahoo.com/mrss/">
<channel>
 <title>Getty</title>
 <link>http://www.gettyimg.com/</link>
 <atom:link href="http://www.gettyimg.com/" rel="self" type="application/rss+xml" />

 
                <item>
                <title><![CDATA[【HD Live Performances】BLU-RAY - [K-POP]aespa - Black Mamba-cut-LIVE TOUR 2023 'SYNK HYPER LINE' in JAPAN BD-D1-Rihyun.m2ts]]></title>
                <link><![CDATA[https://sharemania.us/threads/k-pop-aespa-black-mamba-cut-live-tour-2023-synk-hyper-line-in-japan-bd-d1-rihyun-m2ts.235993/]]></link>
                <description><![CDATA[<article>
<blockquote class="messageText SelectQuoteContainer ugc baseHtml">
<div style="text-align: center"><b><i><span style="font-family: 'Georgia'"><span style="font-size: 26px"><span style="color: #a64dff">aespa - Black Mamba -cut- <br>
LIVE TOUR 2023 'SYNK HYPER LINE' in JAPAN</span></span></span></i></b><br>
<br>
<a href="https://imgbox.com/i3BEZpYS" target="_blank" class="externalLink" rel="nofollow"><img src="https://thumbs2.imgbox.com/2b/83/i3BEZpYS_t.jpg" class="bbCodeImage LbImage" alt="[​IMG]" data-url="https://thumbs2.imgbox.com/2b/83/i3BEZpYS_t.jpg"></a><br>
<br>
<div class="bbCodeBlock bbCodeVfcHH HiddenContent">
<div class="attribution type">Hidden Content:</div>
<blockquote>You must either reply or click 'Like' to see the hidden information contained here.</blockquote>
</div></div>
<div class="messageTextEndMarker">&nbsp;</div>
</blockquote>
</article>]]></description>
                <author><![CDATA[ricardorihyun]]></author>
                </item>

                
                <item>
                <title><![CDATA[【Cinema Center】SERIES - Secrets of Sulphur Springs - Season 3 - 1080p Amazon WEB-DL DDP5.1 H.264-LAZY]]></title>
                <link><![CDATA[https://sharemania.us/threads/secrets-of-sulphur-springs-season-3-1080p-amazon-web-dl-ddp5-1-h-264-lazy.235994/]]></link>
                <description><![CDATA[<article>
<blockquote class="messageText SelectQuoteContainer ugc baseHtml">
Secrets of Sulphur Springs:<img src="https://i.imgur.com/SSbJSV8.jpg" class="bbCodeImage LbImage" alt="[​IMG]" data-url="https://i.imgur.com/SSbJSV8.jpg" style=""><br>
<br>
<div class="bbCodeBlock bbCodeQuote">
<aside>
<blockquote class="quoteContainer"><div class="quote"><i><b>Synopsis:</b></i><br>
Griffin Campbell and his family move to the old Tremont hotel in the town of Sulphur Springs. The entire town believes that the hotel is haunted by the ghost of a girl named Savannah, who disappeared over 30 years ago. When Griffin and his new best friend Harper try to solve the mystery of what happened to her, they find a portal that lets them travel back in time, where they learn that the secret to solving the mystery is meeting Griffin’s own father!</div><div class="quoteExpand">Click to expand...</div></blockquote>
</aside>
</div>
<div class="ToggleTriggerAnchor bbCodeSpoilerContainer">
<button type="button" class="button bbCodeSpoilerButton ToggleTrigger Tooltip JsOnly" data-target="> .SpoilerTarget"><span>Spoiler: <span class="SpoilerTitle">MediaInfo</span></span></button>
<div class="SpoilerTarget bbCodeSpoilerText">General<br>
Unique ID : 38040280958710015248352105014355990891 (0x1C9E4AA78D1B0678568567660A92996B)<br>
Complete name : Secrets.of.Sulphur.Springs.S03E01.Time.Wont.Let.Me.1080p.AMZN.WEB-DL.DDP5.1.H.264-LAZY.mkv<br>
Format : Matroska<br>
Format version : Version 4<br>
File size : 1.54 GiB<br>
Duration : 22 min 40 s<br>
Overall bit rate : 9 719 kb/s<br>
Encoded date : UTC 2024-01-17 17:51:15<br>
Writing application : mkvmerge v82.0 ('I'm The President') 64-bit<br>
Writing library : libebml v1.4.5 + libmatroska v1.7.1<br>
<br>
Video<br>
ID : 1<br>
Format : AVC<br>
Format/Info : Advanced Video Codec<br>
Format profile : High@L4<br>
Format settings : CABAC / 4 Ref Frames<br>
Format settings, CABAC : Yes<br>
Format settings, Reference frames : 4 frames<br>
Codec ID : V_MPEG4/ISO/AVC<br>
Duration : 22 min 40 s<br>
Bit rate mode : Constant<br>
Bit rate : 9 077 kb/s<br>
Nominal bit rate : 10 000 kb/s<br>
Width : 1 920 pixels<br>
Height : 1 080 pixels<br>
Display aspect ratio : 16:9<br>
Frame rate mode : Constant<br>
Frame rate : 23.976 (24000/1001) FPS<br>
Color space : YUV<br>
Chroma subsampling : 4:2:0<br>
Bit depth : 8 bits<br>
Scan type : Progressive<br>
Bits/(Pixel*Frame) : 0.183<br>
Stream size : 1.44 GiB (93%)<br>
Default : Yes<br>
Forced : No<br>
Color range : Limited<br>
Color primaries : BT.709<br>
Transfer characteristics : BT.709<br>
Matrix coefficients : BT.709<br>
<br>
Audio<br>
ID : 2<br>
Format : E-AC-3<br>
Format/Info : Enhanced AC-3<br>
Commercial name : Dolby Digital Plus<br>
Codec ID : A_EAC3<br>
Duration : 22 min 40 s<br>
Bit rate mode : Constant<br>
Bit rate : 640 kb/s<br>
Channel(s) : 6 channels<br>
Channel layout : L R C LFE Ls Rs<br>
Sampling rate : 48.0 kHz<br>
Frame rate : 31.250 FPS (1536 SPF)<br>
Compression mode : Lossy<br>
Stream size : 104 MiB (7%)<br>
Language : English<br>
Service kind : Complete Main<br>
Default : Yes<br>
Forced : No<br>
<br>
Text<br>
ID : 3<br>
Format : UTF-8<br>
Codec ID : S_TEXT/UTF8<br>
Codec ID/Info : UTF-8 Plain Text<br>
Duration : 22 min 7 s<br>
Bit rate : 92 b/s<br>
Count of elements : 499<br>
Stream size : 15.1 KiB (0%)<br>
Title : SDH<br>
Language : English<br>
Default : No<br>
Forced : No</div>
</div><br>
Screenshots:<br>
<img src="https://i.imgur.com/9K1o7dy.jpg" class="bbCodeImage LbImage" alt="[​IMG]" data-url="https://i.imgur.com/9K1o7dy.jpg" style=""> <br>
<div class="bbCodeBlock bbCodeVfcHH HiddenContent">
<div class="attribution type">Hidden Content:</div>
<blockquote>You must either reply or click 'Like' to see the hidden information contained here.</blockquote>
</div>
<div class="messageTextEndMarker">&nbsp;</div>
</blockquote>
</article>]]></description>
                <author><![CDATA[LazyRips]]></author>
                </item>

                </channel></rss>